<?xml version="1.0" encoding="iso-8859-1"?>
<!-- Uploaded to: SVG Repo, www.svgrepo.com, Generator: SVG Repo Mixer Tools -->
<!DOCTYPE svg PUBLIC "-//W3C//DTD SVG 1.1//EN" "http://www.w3.org/Graphics/SVG/1.1/DTD/svg11.dtd">
<svg fill="#000000" height="800px" width="800px" version="1.1" id="Capa_1" xmlns="http://www.w3.org/2000/svg" xmlns:xlink="http://www.w3.org/1999/xlink" 
	 viewBox="0 0 444.489 444.489" xml:space="preserve">
<path d="M441.56,25.557L418.933,2.929C417.058,1.054,414.514,0,411.862,0s-5.195,1.054-7.071,2.929l-49.862,49.863l-9.899-9.899
	c-3.906-3.905-10.236-3.905-14.143,0l-21.213,21.213l-7.071-7.071l7.071-7.071c3.905-3.905,3.905-10.237,0-14.142
	c-3.906-3.904-10.236-3.904-14.143,0L190.076,141.277c-3.905,3.905-3.905,10.237,0,14.143c3.906,3.905,10.236,3.905,14.143,0
	l84.242-84.243l7.07,7.071L66.569,307.21c-26.018,26.018-41.083,47.088-46.058,64.416c-3.664,12.763-2.26,23.936,4.312,33.899
	L2.929,427.418c-3.905,3.905-3.905,10.237,0,14.142c1.953,1.953,4.512,2.929,7.071,2.929s5.118-0.977,7.071-2.929l21.893-21.893
	c9.964,6.571,21.134,7.974,33.899,4.312c17.327-4.975,38.398-20.04,64.416-46.058l235.974-235.975c0.02-0.019,0.04-0.039,0.06-0.058
	s0.039-0.04,0.059-0.059l28.226-28.226c1.875-1.875,2.929-4.418,2.929-7.071s-1.054-5.196-2.929-7.071l-9.899-9.899l49.862-49.863
	C445.465,35.793,445.465,29.462,441.56,25.557z M67.345,404.755c-9.037,2.594-15.405,0.964-21.989-5.622
	c-6.586-6.585-8.215-12.956-5.621-21.989c3.544-12.346,14.964-28.683,33.987-48.639l42.262,42.262
	C96.028,389.791,79.691,401.21,67.345,404.755z M130.208,356.708l-42.426-42.426L309.673,92.39l42.426,42.426L130.208,356.708z
	 M366.242,120.674l-42.426-42.426l14.142-14.142l32.479,32.479c0.016,0.016,0.032,0.032,0.048,0.048
	c0.017,0.016,0.032,0.032,0.049,0.048l9.851,9.851L366.242,120.674z M377.555,75.419l-8.485-8.485l42.792-42.792l8.485,8.485
	L377.555,75.419z"/>
</svg>